<?xml version="1.0" encoding="utf-8"?>
<!-- Generator: Adobe Illustrator 22.0.1, SVG Export Plug-In . SVG Version: 6.00 Build 0)  -->
<svg version="1.1" id="Layer_1" xmlns="http://www.w3.org/2000/svg" xmlns:xlink="http://www.w3.org/1999/xlink" x="0px" y="0px"
	 viewBox="0 0 60 60" style="enable-background:new 0 0 60 60;" xml:space="preserve">
<style type="text/css">
	.st0{fill:#FFFFFF;}
	.st1{font-family:'Rockwell-Regular';}
	.st2{font-size:16.9138px;}
	.st3{font-size:16.0524px;}
	.st4{font-family:'Athelas-Regular';}
	.st5{font-size:40.6174px;}
</style>
<g>
	<path class="st0" d="M30,8c12.1,0,22,9.9,22,22s-9.9,22-22,22S8,42.1,8,30S17.9,8,30,8 M30,5C16.2,5,5,16.2,5,30s11.2,25,25,25
		s25-11.2,25-25S43.8,5,30,5L30,5z"/>
</g>
<text transform="matrix(0.8977 0 0 1 13.9731 29.0449)" class="st0 st1 st2">M</text>
<text transform="matrix(1.4282 0 0 1 13.9722 43.2969)" class="st0 st1 st3">Z</text>
<text transform="matrix(0.7942 0 0 1 29 43.5088)" class="st0 st4 st5">L</text>
</svg>
